<svg xmlns="http://www.w3.org/2000/svg" xmlns:xlink="http://www.w3.org/1999/xlink" viewBox="0 0 622.2 862.95"><defs><style>.cls-1{fill:none;}.cls-2{clip-path:url(#clip-path);}.cls-3{fill:#dfdfdf;}.cls-4{fill:#eaeaea;}.cls-5{fill:#2e353a;}.cls-6{fill:#ca515b;}.cls-7{fill:#eebd9d;}.cls-8{clip-path:url(#clip-path-2);}.cls-15,.cls-16,.cls-9{fill:#fff;}.cls-25,.cls-9{opacity:0.3;}.cls-10{fill:#fafafa;}.cls-11{fill:#4d5a64;}.cls-12,.cls-13{opacity:0.4;}.cls-14,.cls-16{opacity:0.6;}.cls-17{clip-path:url(#clip-path-3);}.cls-18{clip-path:url(#clip-path-4);}.cls-19{fill:#d79870;}.cls-20{opacity:0.2;}.cls-21{clip-path:url(#clip-path-5);}.cls-22{clip-path:url(#clip-path-6);}.cls-23{fill:#f5f5f5;}.cls-24{clip-path:url(#clip-path-7);}.cls-26{clip-path:url(#clip-path-8);}</style><clipPath id="clip-path" transform="translate(0 8.82)"><polygon class="cls-1" points="372.63 698.7 481.73 703.36 484.37 709.72 412.86 825.78 283.78 822.02 372.63 698.7"/></clipPath><clipPath id="clip-path-2" transform="translate(0 8.82)"><path class="cls-1" d="M171.25,8.72s3.64,5.49,9.51,0L176,0Z"/></clipPath><clipPath id="clip-path-3" transform="translate(0 8.82)"><path class="cls-1" d="M275.84,238.14h0l33.52,3.16L363,184.63l-31.53-1.08-56.15,5.54S280.26,212.5,275.84,238.14Z"/></clipPath><clipPath id="clip-path-4" transform="translate(0 8.82)"><path class="cls-1" d="M462.06,280.67l-21.68-48.6c-2.59-7.82-7.45-9-11.52-13.56l-54.31-30.63C335,171.67,313.43,226,313.43,226l-36,82.06c-42.3,14-12.35,46.51-12.35,46.51s-11.51-20-.19-27.22c11.85-7.56,25,12.35,37.61,31.26,14.9,22.32,63.32,36.82,63.32,36.82,5.66-6,4.08-26.87,8.51-38.08,1.41-3.55,34.94-81.22,34.94-81.22l13,31.49S439,288.12,447,285A91.44,91.44,0,0,1,462.06,280.67Z"/></clipPath><clipPath id="clip-path-5" transform="translate(0 8.82)"><path class="cls-1" d="M58.65,396.33l7.77,12.44s33.14-30.49,66-21.87C132.44,386.9,102.89,361.84,58.65,396.33Z"/></clipPath><clipPath id="clip-path-6" transform="translate(0 8.82)"><path class="cls-1" d="M132.44,386.9s24.33-26.42,60-20.39l9.73,1.46-3.11-5.62S137,341.1,132.44,386.9Z"/></clipPath><clipPath id="clip-path-7" transform="translate(0 8.82)"><circle class="cls-1" cx="82.87" cy="495.85" r="38.97"/></clipPath><clipPath id="clip-path-8" transform="translate(0 8.82)"><circle class="cls-1" cx="512.31" cy="130.83" r="32.15" transform="translate(51.9 390.82) rotate(-43.78)"/></clipPath><image id="image" width="2028" height="1302" xlink:href="./assets/SVG/grad.png"/></defs><g id="Layer_2" data-name="Layer 2"><g id="OBJECTS"><g id="notebook"><g class="cls-2"><use transform="matrix(0, -0.1, 0.16, 0, 271.09, 862.95)" xlink:href="#image"/></g><polygon class="cls-3" points="278.88 819.53 408.74 826.94 476.57 721.68 428.94 725.55 308.4 768 278.88 819.53"/><path class="cls-4" d="M260.64,802.9l119.25,1.88c-4.95-15.25,6.73-36.74,22.76-44,10.63-4.79,30.62-11,40.94-16.29,19.6-10.06,37.32-29.1,35.77-45.44l-49-1.56-62.51-2.42c-5.22,15.51-16.41,25.67-33.4,31.78-15.21,5.47-32.53,5.45-47.36,11.67-23.88,10-35.36,42.41-26.47,64.35" transform="translate(0 8.82)"/><path class="cls-5" d="M260.64,802.9s-.11-.26-.3-.77l-.81-2.3a26.91,26.91,0,0,1-1-3.86,39.2,39.2,0,0,1-.82-5.43,55.16,55.16,0,0,1,.94-15.16,56.69,56.69,0,0,1,7.65-18.93,45.93,45.93,0,0,1,3.43-4.79c.65-.78,1.26-1.6,2-2.36s1.46-1.48,2.2-2.23a19.42,19.42,0,0,1,2.38-2.14c.85-.68,1.67-1.41,2.56-2.06a44.41,44.41,0,0,1,5.8-3.46c8.27-4.17,18.14-5.92,28.42-7.79,5.15-.93,10.46-1.91,15.79-3.38a73.29,73.29,0,0,0,15.72-6.33,50.89,50.89,0,0,0,7.34-4.81,43.92,43.92,0,0,0,6.51-6.15,47.09,47.09,0,0,0,9.06-16l.11-.32.33,0,52.09,2c18,.71,36.76,1.2,55.9,1.84l3.5.11.43,0,0,.42a26.72,26.72,0,0,1-1.57,11,42.26,42.26,0,0,1-2.19,5.08,54.21,54.21,0,0,1-2.85,4.69,72.44,72.44,0,0,1-14.77,15.62,87.43,87.43,0,0,1-17.83,11c-6.29,2.83-12.66,5.13-18.9,7.44s-12.4,4.49-18.26,7a36.23,36.23,0,0,0-8,4.87,44.38,44.38,0,0,0-3.48,3.07c-1,1.15-2.16,2.19-3.07,3.42A44.3,44.3,0,0,0,380.56,788a29.15,29.15,0,0,0-.29,16.69l.16.53h-.54l-86.73-1.54-24.05-.49L262.8,803c-1.42,0-2.16-.09-2.16-.09s.74,0,2.16,0l6.31,0,24.06.27,86.73,1.2-.38.52a29.71,29.71,0,0,1,.25-17.16,45,45,0,0,1,8.46-16c.92-1.25,2.08-2.32,3.12-3.49a46.28,46.28,0,0,1,3.55-3.14,36.79,36.79,0,0,1,8.21-5c5.9-2.58,12.07-4.77,18.3-7.08s12.59-4.63,18.83-7.44a86.9,86.9,0,0,0,17.62-10.9,71.63,71.63,0,0,0,14.57-15.41c1.05-1.46,1.89-3,2.79-4.6a39.26,39.26,0,0,0,2.13-5,25.74,25.74,0,0,0,1.53-10.61l.46.43-3.49-.11c-19.14-.64-37.85-1.14-55.91-1.86l-52.08-2,.44-.3A48.06,48.06,0,0,1,359,711.52a44.5,44.5,0,0,1-6.64,6.25,53,53,0,0,1-7.46,4.87A74.25,74.25,0,0,1,329,729c-5.38,1.47-10.71,2.44-15.87,3.36-10.28,1.83-20.1,3.56-28.25,7.64a41.5,41.5,0,0,0-5.73,3.38c-.89.64-1.7,1.36-2.53,2a19.76,19.76,0,0,0-2.36,2.1l-2.19,2.19c-.69.75-1.3,1.56-1.94,2.33a45.45,45.45,0,0,0-3.42,4.72,56.38,56.38,0,0,0-7.69,18.72A55.1,55.1,0,0,0,258,790.52a38.23,38.23,0,0,0,.75,5.4,28,28,0,0,0,.94,3.86l.74,2.32C260.58,802.62,260.64,802.9,260.64,802.9Z" transform="translate(0 8.82)"/><path class="cls-5" d="M401.37,697c-.09,0,.16-.77.27-2.14a11.91,11.91,0,0,0-.94-5.63,11.62,11.62,0,0,0-5.63-6,12.89,12.89,0,0,0-17.31,6.63,14.42,14.42,0,0,0-1.15,8.3,14.08,14.08,0,0,0,2,5.37c.74,1.16,1.29,1.71,1.23,1.77a5.23,5.23,0,0,1-1.54-1.55,13.24,13.24,0,0,1-2.4-5.46,14.74,14.74,0,0,1,1-8.8,13.9,13.9,0,0,1,7.74-7.53,13.71,13.71,0,0,1,10.78.47,12,12,0,0,1,5.88,6.59A11.63,11.63,0,0,1,402,695a7.9,7.9,0,0,1-.4,1.57C401.49,696.87,401.4,697.05,401.37,697Z" transform="translate(0 8.82)"/><path class="cls-5" d="M420.06,697c-.09,0,.16-.77.27-2.14a11.91,11.91,0,0,0-.94-5.63,11.62,11.62,0,0,0-5.63-6,12.89,12.89,0,0,0-17.31,6.63,14.42,14.42,0,0,0-1.15,8.3,14.08,14.08,0,0,0,2,5.37c.74,1.16,1.29,1.71,1.23,1.77a5.23,5.23,0,0,1-1.54-1.55,13.24,13.24,0,0,1-2.4-5.46,14.74,14.74,0,0,1,1-8.8,13.9,13.9,0,0,1,7.74-7.53,13.71,13.71,0,0,1,10.78.47A12,12,0,0,1,420,689a11.63,11.63,0,0,1,.68,5.93,7.9,7.9,0,0,1-.4,1.57C420.18,696.87,420.09,697.05,420.06,697Z" transform="translate(0 8.82)"/><path class="cls-5" d="M434.26,698c-.09,0,.11-.78.14-2.15a12,12,0,0,0-1.25-5.57,11.59,11.59,0,0,0-6-5.71,12.89,12.89,0,0,0-16.9,7.6,14.39,14.39,0,0,0-.68,8.35,14.22,14.22,0,0,0,2.34,5.25c.8,1.11,1.38,1.63,1.33,1.69a5.16,5.16,0,0,1-1.63-1.46,13.32,13.32,0,0,1-2.71-5.32,14.8,14.8,0,0,1,.51-8.83,13.61,13.61,0,0,1,18.09-8.1,12,12,0,0,1,6.24,6.24,11.5,11.5,0,0,1,1,5.89,7.38,7.38,0,0,1-.31,1.59C434.36,697.84,434.29,698,434.26,698Z" transform="translate(0 8.82)"/><path class="cls-5" d="M449.48,698.87c-.09,0,.07-.78,0-2.15a12.06,12.06,0,0,0-1.55-5.49,11.58,11.58,0,0,0-6.26-5.39,12.89,12.89,0,0,0-16.48,8.48,14.36,14.36,0,0,0-.23,8.38,14.12,14.12,0,0,0,2.61,5.12c.86,1.07,1.47,1.55,1.41,1.62a5.39,5.39,0,0,1-1.69-1.38,13.22,13.22,0,0,1-3-5.16,14.72,14.72,0,0,1,0-8.85A13.61,13.61,0,0,1,442,685a12.08,12.08,0,0,1,6.57,5.91,11.66,11.66,0,0,1,1.32,5.82,7.36,7.36,0,0,1-.23,1.61C449.57,698.7,449.51,698.88,449.48,698.87Z" transform="translate(0 8.82)"/><path class="cls-5" d="M464.72,698.52c-.09,0,0-.79,0-2.15a12.15,12.15,0,0,0-1.7-5.45,11.6,11.6,0,0,0-6.42-5.21,12.88,12.88,0,0,0-16.23,8.94,14.43,14.43,0,0,0,0,8.38,14.11,14.11,0,0,0,2.76,5c.89,1,1.51,1.51,1.46,1.58a5.42,5.42,0,0,1-1.74-1.32,13.37,13.37,0,0,1-3.13-5.08,14.78,14.78,0,0,1-.21-8.85,13.62,13.62,0,0,1,17.37-9.54,12,12,0,0,1,6.73,5.72,11.61,11.61,0,0,1,1.49,5.78,7.89,7.89,0,0,1-.18,1.61C464.82,698.34,464.76,698.52,464.72,698.52Z" transform="translate(0 8.82)"/><path class="cls-5" d="M477.57,700.23c-.09,0,.08-.78.06-2.15a12,12,0,0,0-1.48-5.51,11.54,11.54,0,0,0-6.2-5.46,13,13,0,0,0-10,.62,13.14,13.14,0,0,0-6.54,7.66,14.44,14.44,0,0,0-.33,8.38,14.28,14.28,0,0,0,2.55,5.14c.85,1.08,1.45,1.58,1.4,1.64a5.15,5.15,0,0,1-1.68-1.39,13.27,13.27,0,0,1-2.93-5.2,14.8,14.8,0,0,1,.14-8.85,13.85,13.85,0,0,1,7-8.25,13.7,13.7,0,0,1,10.77-.59,12.06,12.06,0,0,1,6.5,6,11.55,11.55,0,0,1,1.25,5.84,8.42,8.42,0,0,1-.24,1.6C477.67,700.05,477.61,700.24,477.57,700.23Z" transform="translate(0 8.82)"/></g><g id="Everything"><g id="float-obj-pencil"><path class="cls-6" d="M164,30.85h24a0,0,0,0,1,0,0V85.51a5.41,5.41,0,0,1-5.41,5.41H169.41A5.41,5.41,0,0,1,164,85.51V30.85A0,0,0,0,1,164,30.85Z"/><polygon class="cls-7" points="164 30.84 176 8.82 188.01 30.84 164 30.84"/><g class="cls-8"><use transform="matrix(0, -0.01, 0.01, 0, 167.55, 18.05)" xlink:href="#image"/></g><line class="cls-9" x1="167.55" y1="30.85" x2="172.71" y2="30.85"/><path class="cls-5" d="M188.34,69.12c0,.27-5.46.48-12.2.48s-12.21-.21-12.21-.48,5.46-.49,12.21-.49S188.34,68.85,188.34,69.12Z" transform="translate(0 8.82)"/><path class="cls-5" d="M188.1,65.44c0,.26-5.36.48-12,.48s-12-.22-12-.48,5.36-.49,12-.49S188.1,65.17,188.1,65.44Z" transform="translate(0 8.82)"/><path class="cls-10" d="M171,22.38c.27,0,.49,9.58.49,21.4s-.22,21.41-.49,21.41-.48-9.58-.48-21.41S170.78,22.38,171,22.38Z" transform="translate(0 8.82)"/><path class="cls-10" d="M180.76,22.38c.27,0,.48,9.58.48,21.4s-.21,21.41-.48,21.41-.49-9.58-.49-21.41S180.49,22.38,180.76,22.38Z" transform="translate(0 8.82)"/></g><g id="float-obj-balloon"><path class="cls-6" d="M533.77,300a107.75,107.75,0,0,0-16.15.73c-33.67,4.17-58.76,33.09-58.7,67a119.31,119.31,0,0,0,4.18,31.94c9.39,33.33,12.29,62.71,11.21,77l31.45,16.9s14.56-20.91,28.63-29.94,60.89-33.15,79.43-57.95c11.95-16,14.24-48.8-14.24-77.49A96.59,96.59,0,0,0,533.77,300Z" transform="translate(0 8.82)"/><polygon class="cls-11" points="459.42 521.88 487.83 537.23 469.34 560.72 450.4 552.11 459.42 521.88"/><path class="cls-5" d="M460.8,514c-.25-.09,2.57-8.52,6.3-18.84s7-18.59,7.21-18.5-2.57,8.52-6.3,18.83S461.05,514.09,460.8,514Z" transform="translate(0 8.82)"/><path class="cls-5" d="M486,527.26c-.23-.14,4.23-8.11,9.95-17.8s10.55-17.43,10.78-17.3-4.22,8.1-9.95,17.8S486.27,527.39,486,527.26Z" transform="translate(0 8.82)"/><g class="cls-12"><path d="M543.25,300.84c-1.28.07-16.91,18.38-23.83,30.76-23.27,41.67-24.31,82.23-30.77,129.52-.92,6.75-4.28,21.32-4.22,21,3.44,2.7,15,8.07,15,8.07s10.91-13.17,15.24-19.8c17.37-26.52,36.22-47.2,51.08-75.2s29.17-52.84,15.42-81.4C581.19,313.77,557.36,300.05,543.25,300.84Z" transform="translate(0 8.82)"/></g><path class="cls-5" d="M613.94,409.87a6.32,6.32,0,0,1-.41-.9c-.26-.6-.56-1.51-1.09-2.65a47.43,47.43,0,0,0-5.49-9.23,48,48,0,0,0-12.06-11.26,46,46,0,0,0-19.8-7.33l-.19,0-.11-.15a110.67,110.67,0,0,0-12.7-14.57,63.41,63.41,0,0,0-17.33-11.93,44.76,44.76,0,0,0-20.48-3.91,33.91,33.91,0,0,0-17.93,6l-.28.2-.26-.23a35.32,35.32,0,0,0-19.14-8.51,34.65,34.65,0,0,0-16.28,2.08,36.15,36.15,0,0,0-9.35,5.26c-1,.77-1.72,1.39-2.19,1.83a5.08,5.08,0,0,1-.76.63,6,6,0,0,1,.66-.73,26.5,26.5,0,0,1,2.12-1.95,35,35,0,0,1,25.88-7.84,35.81,35.81,0,0,1,19.64,8.58l-.55,0A34.61,34.61,0,0,1,524.23,347a45.72,45.72,0,0,1,20.93,4,64.24,64.24,0,0,1,17.58,12.13,109.91,109.91,0,0,1,12.75,14.75l-.3-.18a46.47,46.47,0,0,1,20.1,7.59,47.9,47.9,0,0,1,12.08,11.56,44.54,44.54,0,0,1,5.33,9.44c.49,1.15.75,2.09,1,2.7A5.51,5.51,0,0,1,613.94,409.87Z" transform="translate(0 8.82)"/><path class="cls-5" d="M555.47,451.39a20,20,0,0,0-2.71-6.83,18.64,18.64,0,0,0-6-5.8,16.88,16.88,0,0,0-10.41-2.47l-.39,0-.06-.39a27.59,27.59,0,0,0-5.16-12.15A27.18,27.18,0,0,0,519,414.73a27.87,27.87,0,0,0-23.07,1.2l-.3.16-.23-.25a19.8,19.8,0,0,0-10.92-5.92,22,22,0,0,0-9.8.31c-5.37,1.47-7.66,4.06-7.77,3.86,0,0,.13-.16.42-.42a16.49,16.49,0,0,1,1.33-1.11,19.46,19.46,0,0,1,5.88-2.83,21.9,21.9,0,0,1,10.07-.52,20.44,20.44,0,0,1,11.44,6l-.53-.09a28.38,28.38,0,0,1,11.21-3.24,28.75,28.75,0,0,1,12.63,1.91,28.4,28.4,0,0,1,17.29,22l-.46-.36a17.51,17.51,0,0,1,10.86,2.72,18.88,18.88,0,0,1,6.09,6.12,16.43,16.43,0,0,1,2.08,5.14,12,12,0,0,1,.2,1.45A1.36,1.36,0,0,1,555.47,451.39Z" transform="translate(0 8.82)"/><path class="cls-5" d="M482.34,535.81c-.07.05-.31-.39-1-.69a5,5,0,0,0-3.32.1,9.78,9.78,0,0,1-2.52.46,3.94,3.94,0,0,1-2.8-1.24c-1.51-1.57-2.09-3.84-3.51-5.41a3.24,3.24,0,0,0-2.62-1.1,16.5,16.5,0,0,0-3,.59,6.71,6.71,0,0,1-3,.16,5.21,5.21,0,0,1-2.33-1.19,5.59,5.59,0,0,1-1.87-3.16,2.27,2.27,0,0,1,0-1.34c.09,0,.08.47.33,1.25A5.63,5.63,0,0,0,458.7,527a4.71,4.71,0,0,0,2.05.93,6,6,0,0,0,2.61-.24,15.78,15.78,0,0,1,3.13-.67,4.16,4.16,0,0,1,3.36,1.38c1.66,1.88,2.18,4.12,3.45,5.46a3.12,3.12,0,0,0,2.19,1,8.84,8.84,0,0,0,2.32-.32,5.05,5.05,0,0,1,3.66.23C482.26,535.25,482.39,535.81,482.34,535.81Z" transform="translate(0 8.82)"/><path class="cls-5" d="M485.6,531.25c-.12.23-6.33-2.83-13.86-6.85s-13.53-7.46-13.41-7.7,6.33,2.83,13.87,6.85S485.73,531,485.6,531.25Z" transform="translate(0 8.82)"/><path class="cls-5" d="M480,538.42c0,.07-.4.19-1.08.51-.35.15-.75.39-1.29.61a4.37,4.37,0,0,1-2,.25A8.16,8.16,0,0,1,471,538a6.43,6.43,0,0,1-1.78-2.46,9.49,9.49,0,0,0-1.38-2.56c-1.3-1.38-3.4-1.53-5.15-1.47a11.89,11.89,0,0,1-4.94-.47,4.62,4.62,0,0,1-2.5-2.29c-.31-.77-.2-1.24-.15-1.24s.11.44.49,1.06a4.49,4.49,0,0,0,2.41,1.82,12.32,12.32,0,0,0,4.66.23c1.78-.1,4.19-.07,5.9,1.71a9.46,9.46,0,0,1,1.52,2.83,5.6,5.6,0,0,0,1.51,2.16,7.77,7.77,0,0,0,4.16,1.8,5.87,5.87,0,0,0,3-.53C479.5,538.35,480,538.36,480,538.42Z" transform="translate(0 8.82)"/></g><g id="man"><path class="cls-6" d="M265.43,355.92l49.13-7.29-23.49-33.28-12.6.75a22.46,22.46,0,0,0-19.31,13.54h0a22.38,22.38,0,0,0-1.43,13.15Z" transform="translate(0 8.82)"/><path class="cls-13" d="M265.43,355.92l49.13-7.29-23.49-33.28-12.6.75a22.46,22.46,0,0,0-19.31,13.54h0a22.38,22.38,0,0,0-1.43,13.15Z" transform="translate(0 8.82)"/><path class="cls-7" d="M476.49,410.37c.51,1.41,1.06,3.07,1.62,5.06a15.6,15.6,0,0,1,.53,5.27,23.77,23.77,0,0,1-1.11,6.5c-.81,1.86,1.07,3.74,2.66,2.81s3.95-6,3.8-12.56,6.53,1.3,9,4.12,10.57,11.15,12,11.07c2.16-.11,2.43-2.44-.11-5.19s-9.6-11.54-8.05-12.78,14,13.27,14,13.27,2.16,3.53,4,2.15c3.32-2.47-11-16.9-12.44-18.24-1-.93.66-2.34,1.65-1.28s12.07,14.74,15.47,12.25c2.61-1.91-11.7-12-12.42-16.09s10.08,8.74,12.49,6.82c.9-.72,1.47-1.38-5.79-7.86-3.53-3.15-16.93-12.53-16.93-12.53L456.54,277.69,425.4,295.53Z" transform="translate(0 8.82)"/><path class="cls-7" d="M236.41,192l-45.06-53.78h0a31.33,31.33,0,0,0-2.21-5.36c-2.25-4.2-6-7.85-10.63-8.87-2.86-.63-6.13-.33-8.37-2.21-1-.84-1.67-2-2.72-2.81s-2.81-.93-3.48.19a3.07,3.07,0,0,0,.19,2.68,25.11,25.11,0,0,0,7.82,10.1c-4.22,1.28-10.26,3.23-10.26,3.23s-9.52-10.34-14.4-10.31,3.94,9.23,3.94,9.23-7.81-7.22-10.24-5.18,3.79,7.39,3.79,7.39c-2-1-4.13-2.14-6.34-1.77s-4.11,3-2.92,4.86a5.1,5.1,0,0,0,2,1.59l12,6.69c2,1.12,4.12,2.27,6.41,2.34,6.09.18,10.72-3.58,16.8-3.42,0,0,34,71.54,37.42,75.23s78.1,8.71,78.1,8.71l43.21-37.23Z" transform="translate(0 8.82)"/><path class="cls-6" d="M371.77,581.67l46,20L393.15,659.1c-5.34-2.69-3.59-37.11-3.59-37.11l-30-11.63Z" transform="translate(0 8.82)"/><g class="cls-14"><path class="cls-15" d="M394.69,603.18a2.55,2.55,0,0,1,3.37-.47,2.45,2.45,0,0,1,.5,3.33,2.69,2.69,0,0,1-3.57.49c-.93-.85-1.11-2.75-.14-3.53" transform="translate(0 8.82)"/></g><path class="cls-16" d="M417.8,601.71l-4.72-1.84-21.87,55.71s0,3,1.94,3.52Z" transform="translate(0 8.82)"/><path class="cls-5" d="M388.87,622.8c.28.11,1-1.24,2.5-2.23s3-1.22,3-1.53-1.8-.58-3.59.65S388.58,622.75,388.87,622.8Z" transform="translate(0 8.82)"/><path class="cls-5" d="M388.77,629.89c.24.18,1.24-.83,2.84-1.28s3-.17,3.07-.46-1.4-1.14-3.37-.55S388.51,629.76,388.77,629.89Z" transform="translate(0 8.82)"/><path class="cls-5" d="M394.51,636.4c.16-.23-1.07-1.22-2.91-1.16s-3,1.11-2.84,1.33,1.36-.24,2.87-.27S394.36,636.66,394.51,636.4Z" transform="translate(0 8.82)"/><path class="cls-5" d="M382.32,619.39c.31,0,.47-1.46,1.26-3s1.82-2.56,1.64-2.81-1.69.51-2.59,2.34S382,619.43,382.32,619.39Z" transform="translate(0 8.82)"/><path class="cls-5" d="M376.1,615.1c.11,0,.76-1,1.22-2.88a14.83,14.83,0,0,0,.2-5.43,4,4,0,0,0-.31-1.16,1.32,1.32,0,0,0-1.43-.77,1.66,1.66,0,0,0-1.17.95,4.08,4.08,0,0,0-.31,1.14,10.94,10.94,0,0,0,.44,5.45c.67,1.86,1.52,2.77,1.61,2.69s-.45-1.11-.89-2.9a13,13,0,0,1-.34-3.18,12.4,12.4,0,0,1,.2-1.87c.1-.68.32-1.2.66-1.24.12,0,.17,0,.29.2a3.26,3.26,0,0,1,.22.85,18.93,18.93,0,0,1,.22,1.89,18.22,18.22,0,0,1-.13,3.24C376.33,613.92,375.94,615,376.1,615.1Z" transform="translate(0 8.82)"/><path class="cls-5" d="M376.66,614.9c.08-.08-.68-1.06-2.45-1.95a10.27,10.27,0,0,0-3.32-1,10.1,10.1,0,0,0-2.06,0,2.57,2.57,0,0,0-2.24,1.21,1.46,1.46,0,0,0,.29,1.54,4.08,4.08,0,0,0,.93.75,6.91,6.91,0,0,0,1.93.83,7.17,7.17,0,0,0,3.5.05c2-.48,2.8-1.51,2.72-1.57s-1.06.59-2.86.83a7.17,7.17,0,0,1-3.09-.25,6.4,6.4,0,0,1-1.64-.76c-.57-.36-1-.8-.8-1s.78-.57,1.37-.6a10.61,10.61,0,0,1,1.86,0,11.11,11.11,0,0,1,3.11.67C375.63,614.29,376.55,615,376.66,614.9Z" transform="translate(0 8.82)"/><path class="cls-6" d="M336.33,660.5l19,39.88,6,35.89a4.53,4.53,0,0,0,5.51,3.66h0a4.49,4.49,0,0,0,3.15-2.7c3.5-8.66,16.22-40.6,14.66-43.44-1.8-3.29-17.29-43.4-17.29-43.4Z" transform="translate(0 8.82)"/><path class="cls-16" d="M366.83,739.93l16.59-48.86.76,1.71a6.8,6.8,0,0,1,.34,4.7c-1.21,4.15-4.79,15.56-14.41,39.7a4.55,4.55,0,0,1-3.28,2.75Z" transform="translate(0 8.82)"/><g class="cls-14"><path class="cls-15" d="M369.3,681.79a2.74,2.74,0,0,0,.78,3.57,2.64,2.64,0,0,0,3.55-.74,2.89,2.89,0,0,0-.85-3.78c-1.2-.61-3.18-.09-3.6,1.18" transform="translate(0 8.82)"/></g><path class="cls-5" d="M368.13,718.18c-.18.21-2-1.49-4.94-1.55s-4.88,1.43-5,1.2.29-.63,1.17-1.18a7.19,7.19,0,0,1,7.72.27C367.89,717.53,368.22,718.1,368.13,718.18Z" transform="translate(0 8.82)"/><path class="cls-5" d="M367.69,724.87c-.12.26-2-.47-4.35-.13s-4,1.48-4.17,1.26,1.35-1.88,4-2.22S367.85,724.66,367.69,724.87Z" transform="translate(0 8.82)"/><path class="cls-5" d="M370.37,708.86c-.11.27-3-.86-6.7-.65s-6.48,1.56-6.61,1.29,2.58-2.09,6.56-2.26S370.51,708.66,370.37,708.86Z" transform="translate(0 8.82)"/><path class="cls-5" d="M365.59,696.25c0,.29-2.64.36-5.59,1.56s-4.92,2.93-5.12,2.72,1.58-2.37,4.76-3.62S365.64,696,365.59,696.25Z" transform="translate(0 8.82)"/><path class="cls-5" d="M360.3,684.4c0,.29-2.86,0-5.86,1.47s-4.5,3.91-4.74,3.75.11-.76.8-1.72A9.71,9.71,0,0,1,354,685a9.84,9.84,0,0,1,4.45-1C359.63,684,360.32,684.29,360.3,684.4Z" transform="translate(0 8.82)"/><path class="cls-5" d="M353.5,683.59a3.82,3.82,0,0,1-.74-1.5,11.61,11.61,0,0,1-.58-4.54,5.15,5.15,0,0,1,1-3.15,1.82,1.82,0,0,1,2-.47,3,3,0,0,1,1.45,1.53,6.39,6.39,0,0,1-2.68,7.7,7.42,7.42,0,0,1-8.25-.55,2.62,2.62,0,0,1-1-1.9,1.79,1.79,0,0,1,1.32-1.63,6.3,6.3,0,0,1,3.28.19,13,13,0,0,1,4.15,1.89c.89.62,1.29,1.07,1.25,1.12a20.27,20.27,0,0,0-5.56-2.34,5.78,5.78,0,0,0-2.86-.1,1,1,0,0,0-.72.88,1.75,1.75,0,0,0,.72,1.22,6.61,6.61,0,0,0,7.15.39,5.55,5.55,0,0,0,2.38-6.5,2.11,2.11,0,0,0-1-1.11,1,1,0,0,0-1.13.24,4.64,4.64,0,0,0-.9,2.65C352.49,681.33,353.7,683.55,353.5,683.59Z" transform="translate(0 8.82)"/><path class="cls-5" d="M400.47,586.54l-52.19-35.13,17.27-169.59L316.12,353l-45.2-10.47S252,381.75,243.64,406.9c-17.85,53.47-30.38,72.63-27.52,111.39.91,12.26,46.21,43,74.81,60a92.17,92.17,0,0,0,1.52,10.15c9.78,44.2,39.62,103,39.62,103l45.35-21.09-14.64-50.11L378,629.1ZM288.29,477.18,294.38,450c-1.28,17.28-2.46,35.32-3.3,52.61A53.89,53.89,0,0,1,288.29,477.18Z" transform="translate(0 8.82)"/><path class="cls-11" d="M332.07,691.41a3.76,3.76,0,0,1-.35-.72l-.94-2.14-3.51-8.27c-3-7.19-7.32-17.63-12.51-30.57s-11.31-28.4-17.5-45.78c-1.54-4.35-3.06-8.83-4.48-13.46-.62-2.34-1.41-4.65-1.83-7.13-.12-.61-.25-1.23-.36-1.84l-.21-1.85-.42-3.73c-.53-5-1-10.09-1.3-15.27-.16-2.59-.3-5.2-.4-7.83s-.21-5.29-.06-8c.76-21.31,2.56-41.51,4-59.9s2.92-34.91,4.08-48.82,1.91-25.16,2.36-32.95c.24-3.89.38-6.91.47-9,.05-1,.09-1.76.12-2.34a4.92,4.92,0,0,1,.08-.79,3.74,3.74,0,0,1,0,.8c0,.57,0,1.34,0,2.33,0,2.06-.1,5.09-.28,9-.33,7.8-1,19.07-2.06,33s-2.41,30.47-3.87,48.84-3.19,38.61-3.95,59.85c-.15,2.65,0,5.27.06,7.9s.24,5.22.4,7.8q.48,7.75,1.28,15.23c.13,1.25.27,2.48.41,3.72l.21,1.84c.1.61.23,1.2.35,1.8.39,2.38,1.18,4.71,1.79,7,1.41,4.6,2.9,9.08,4.43,13.42,6.14,17.38,12.22,32.84,17.29,45.82s9.33,23.4,12.23,30.69c1.44,3.58,2.56,6.39,3.34,8.34l.85,2.18A7.19,7.19,0,0,1,332.07,691.41Z" transform="translate(0 8.82)"/><path class="cls-11" d="M297.19,385.38c0,.05-.46-.29-1.19-1a12.41,12.41,0,0,1-2.21-3.55c-1.4-3.27-2.12-8.14-2.22-13.45a113.48,113.48,0,0,1,.64-13.59,32.28,32.28,0,0,1,.79-5.58c.14,0,.08,2.16-.1,5.63s-.46,8.24-.36,13.51.7,10,1.89,13.23a14.71,14.71,0,0,0,1.86,3.55A4.94,4.94,0,0,1,297.19,385.38Z" transform="translate(0 8.82)"/><path class="cls-11" d="M277.67,345c.1,0,.57,1.77.39,4.74a21.83,21.83,0,0,1-12.48,18.32c-2.7,1.25-4.54,1.47-4.56,1.37s1.72-.62,4.25-2a23.1,23.1,0,0,0,12.11-17.76C277.73,346.84,277.51,345,277.67,345Z" transform="translate(0 8.82)"/><path class="cls-11" d="M358.76,443.62a2,2,0,0,1,0,.51c0,.4-.07.89-.13,1.51q-.21,2.1-.58,5.79c-.55,5.1-1.34,12.35-2.32,21.28-2,18-4.84,42.79-7.94,70.16a127.82,127.82,0,0,0,2.57,38.5,133,133,0,0,0,4.73,16.23c1.75,5,3.39,9.68,4.88,13.95l7,20.22,1.86,5.51.46,1.45a2.43,2.43,0,0,1,.13.5,2.2,2.2,0,0,1-.22-.47c-.15-.37-.33-.83-.55-1.41l-2-5.45c-1.75-4.83-4.24-11.68-7.31-20.12l-5-13.92a131.37,131.37,0,0,1-4.84-16.3,127.25,127.25,0,0,1-2.67-38.78c3.06-27.44,6.09-52.19,8.23-70.14,1.1-8.92,2-16.15,2.63-21.25.32-2.45.58-4.38.76-5.77l.22-1.5A1.94,1.94,0,0,1,358.76,443.62Z" transform="translate(0 8.82)"/><g class="cls-17"><use transform="matrix(0.04, -0.11, 0.18, 0.07, 176.18, 362.63)" xlink:href="#image"/></g><polyline class="cls-7" points="270.92 350.98 278.92 330.52 297.19 357.76 272.83 351.67"/><g class="cls-18"><use transform="matrix(0.04, -0.11, 0.18, 0.07, 184.66, 342.97)" xlink:href="#image"/></g><path class="cls-5" d="M365.84,315.2a6.91,6.91,0,0,1-1.65,1.15,30.33,30.33,0,0,1-4.94,2.34A35.38,35.38,0,0,1,325,313.4a31.77,31.77,0,0,1-4-3.72,7.72,7.72,0,0,1-1.22-1.59c.14-.13,2,2.08,5.64,4.76a36.72,36.72,0,0,0,33.66,5.2C363.34,316.6,365.75,315,365.84,315.2Z" transform="translate(0 8.82)"/><path class="cls-5" d="M322.39,208.28a4.65,4.65,0,0,1-.41,1c-.35.76-.8,1.71-1.35,2.89-1.22,2.63-2.91,6.23-5,10.62-4.17,9-9.7,21.49-15.69,35.36s-11.45,26.43-15.57,35.44c-2,4.51-3.75,8.14-5,10.63L278,307.12a5.21,5.21,0,0,1-.56,1,4.56,4.56,0,0,1,.38-1l1.25-2.94c1.16-2.65,2.75-6.3,4.7-10.74l15.3-35.55c6-13.88,11.63-26.36,16-35.27,2.16-4.46,4-8,5.26-10.5l1.51-2.81A4.83,4.83,0,0,1,322.39,208.28Z" transform="translate(0 8.82)"/><path class="cls-5" d="M424.68,224.76c.09.17-2,1.25-4.82,3.66a35.35,35.35,0,0,0-4.53,4.69,35.61,35.61,0,0,0-6.9,14.24,34.89,34.89,0,0,0-.87,6.46c-.14,3.72.29,6,.11,6.05a5.14,5.14,0,0,1-.41-1.6,12.27,12.27,0,0,1-.26-1.91,19.86,19.86,0,0,1-.13-2.56,31.5,31.5,0,0,1,.68-6.63,34,34,0,0,1,7.09-14.62,31.59,31.59,0,0,1,4.78-4.65,20.69,20.69,0,0,1,2.09-1.48,12.82,12.82,0,0,1,1.66-1A5.42,5.42,0,0,1,424.68,224.76Z" transform="translate(0 8.82)"/><path class="cls-7" d="M434,146.93,402.6,205.7a20.71,20.71,0,0,1-26.74,9.14h0a20.71,20.71,0,0,1-9.86-28.6c3-5.61,5.42-10.19,5.42-10.19s-13.67-8.86-7.28-23.63c5.71-13.17,26.65-50.37,31.09-58.23L421.73,106A29.79,29.79,0,0,1,434,146.93Z" transform="translate(0 8.82)"/><path class="cls-19" d="M371.49,175.83A37.45,37.45,0,0,0,393.08,179s-9.26,8.54-23.33.66Z" transform="translate(0 8.82)"/><path class="cls-5" d="M381.59,128.84a2.3,2.3,0,0,0,1.07,3,2.19,2.19,0,0,0,3-.92,2.29,2.29,0,0,0-1.07-3A2.19,2.19,0,0,0,381.59,128.84Z" transform="translate(0 8.82)"/><path class="cls-5" d="M381.71,127c.14.39,2.25-.07,4.51.94s3.4,2.89,3.77,2.72c.17-.07.13-.68-.36-1.53a6.27,6.27,0,0,0-2.86-2.51,6.06,6.06,0,0,0-3.75-.41C382.09,126.4,381.64,126.79,381.71,127Z" transform="translate(0 8.82)"/><path class="cls-5" d="M402.71,139.23a2.3,2.3,0,0,0,1.07,3,2.19,2.19,0,0,0,3-.92,2.29,2.29,0,0,0-1.07-3A2.19,2.19,0,0,0,402.71,139.23Z" transform="translate(0 8.82)"/><path class="cls-5" d="M403.71,137.32c.14.39,2.25-.07,4.51.94s3.4,2.89,3.77,2.72c.17-.07.13-.68-.36-1.53a6.22,6.22,0,0,0-2.86-2.51,6,6,0,0,0-3.74-.41C404.09,136.75,403.64,137.14,403.71,137.32Z" transform="translate(0 8.82)"/><path class="cls-5" d="M388,150.4c.06-.13-1.23-1-3.38-2.31-.54-.31-1-.67-1-1.11s.57-1,1.15-1.54l3.67-3.62c5.16-5.19,9.17-9.56,9-9.77s-4.56,3.83-9.73,9l-3.61,3.69a3.7,3.7,0,0,0-1.31,2.13,1.57,1.57,0,0,0,.57,1.26,4.44,4.44,0,0,0,.92.58C386.54,149.87,388,150.52,388,150.4Z" transform="translate(0 8.82)"/><path class="cls-5" d="M394,154.93c-.36-.19-1.46,2.26-4.33,3.06s-5.37-.63-5.54-.3c-.1.14.37.74,1.46,1.26a6.69,6.69,0,0,0,4.56.39,5.79,5.79,0,0,0,3.47-2.64C394.15,155.72,394.14,155,394,154.93Z" transform="translate(0 8.82)"/><path class="cls-5" d="M407.09,128.21c-.06.72,2.33,1.43,4.83,2.94s4.33,3.18,4.92,2.79c.28-.19.17-.94-.43-1.92a9.84,9.84,0,0,0-7.44-4.36C407.82,127.62,407.12,127.88,407.09,128.21Z" transform="translate(0 8.82)"/><path class="cls-5" d="M385.46,120.81c.17.69,2,.85,3.84,1.66s3.3,1.89,3.91,1.52c.27-.19.25-.81-.22-1.61a5.84,5.84,0,0,0-2.73-2.23,5.77,5.77,0,0,0-3.51-.33C385.85,120.05,385.4,120.48,385.46,120.81Z" transform="translate(0 8.82)"/><path class="cls-7" d="M424.16,155.74c.29,0,11.42,1.53,6.61,11.43s-13.76,3-13.64,2.73S424.16,155.74,424.16,155.74Z" transform="translate(0 8.82)"/><path class="cls-19" d="M422,167.62c.06,0,.11.21.34.48a1.91,1.91,0,0,0,1.28.66c1.23.12,2.92-1.11,3.83-2.87a6.31,6.31,0,0,0,.72-2.71,2.21,2.21,0,0,0-.65-2,1,1,0,0,0-1.25,0c-.27.21-.3.44-.36.43s-.13-.27.14-.64a1.24,1.24,0,0,1,.7-.43,1.42,1.42,0,0,1,1.07.21,2.71,2.71,0,0,1,1.06,2.41,6.54,6.54,0,0,1-.75,3.05c-1,2-3,3.34-4.59,3a2,2,0,0,1-1.45-1C421.88,167.87,421.94,167.62,422,167.62Z" transform="translate(0 8.82)"/><path class="cls-5" d="M429.9,157.9c-1.37-1.06-4.65-.83-5.95.31s-2.16,2.71-3.46,3.85-3.34,1.78-4.71.73a3.36,3.36,0,0,1-1.07-3.22,9.29,9.29,0,0,1,1.42-3.26c2.69-4.42,5.76-8.63,8.06-13.27s3.82-9.85,3.15-15-3.92-10.13-8.8-11.86c-3.23-1.15-6.82-.8-10.12-1.75a13.48,13.48,0,0,1-8.67-8,23.74,23.74,0,0,0-1.29-2.22c.11-.24,1.28-2.24,2.45-2.63,8.69-2.94,20.49.43,27.7,6.11s12.26,14.83,12.35,24-5.69,19.31-11.06,26.15" transform="translate(0 8.82)"/><path class="cls-5" d="M430,156.91c2.75-4.68,7.21-8.07,10.62-12.29s5.75-10.17,3.32-15c-.83-1.65-2.15-3-2.85-4.76a24,24,0,0,1-1-5.49,19.15,19.15,0,0,0-9.46-13.74c-3.48-1.94-7.49-2.73-11-4.59-5.58-2.93-9.67-8.37-15.53-10.69-1.95-.77-4.23-1.14-6.09-.18s-2.86,3.65-1.5,5.25c-.24-1.87-2.67-2.9-4.39-2.12A4.8,4.8,0,0,0,389.65,98a10.31,10.31,0,0,0,2.13,5.16,26.3,26.3,0,0,0,15,10.37l13.49-1.06,11.06,8.2,8.18,13L424.71,153Z" transform="translate(0 8.82)"/></g><g id="float-obj-bulb"><path class="cls-6" d="M345.6,80a47.63,47.63,0,1,0-65,47.39c.36,5.63.77,12,.77,12L323,136.71s-.18-6.75-.48-12.76A47.62,47.62,0,0,0,345.6,80Z" transform="translate(0 8.82)"/><path class="cls-5" d="M308,137.49s0-.2,0-.59.05-1,.08-1.73c.09-1.52.21-3.76.45-6.64s.57-6.39,1.22-10.45a70.94,70.94,0,0,1,3.46-13.51,45.06,45.06,0,0,1,3.45-7.36,8.73,8.73,0,0,1,3.06-3.13,4.9,4.9,0,0,1,4.52-.15,3.29,3.29,0,0,1,1.63,1.79,3.34,3.34,0,0,1,0,2.45,6.77,6.77,0,0,1-3.47,3.4,13,13,0,0,1-9.93-.06,13.22,13.22,0,0,1-7.22-7.5,9.94,9.94,0,0,1-.64-5.46A4.29,4.29,0,0,1,308.64,85a3.09,3.09,0,0,1,2.53,1.52,4.36,4.36,0,0,1,.57,2.91,9.34,9.34,0,0,1-3,4.94,14.18,14.18,0,0,1-10.87,3.93A12.37,12.37,0,0,1,288.2,92a7.17,7.17,0,0,1-.7-5.74A3.68,3.68,0,0,1,289.45,84a3.57,3.57,0,0,1,2.95.08,4.76,4.76,0,0,1,2.14,2,7.56,7.56,0,0,1,.9,2.7,13.77,13.77,0,0,1-.37,5.47,14.18,14.18,0,0,1-6.19,8.41,14.41,14.41,0,0,1-9.75,2,7.59,7.59,0,0,1-4.42-2,3.69,3.69,0,0,1-.56-4.57,3.1,3.1,0,0,1,2.07-1.18,4.45,4.45,0,0,1,2.29.29,6.89,6.89,0,0,1,3.12,3.08c1.36,2.5,2.48,4.94,3.61,7.27,4.42,9.34,7.63,17.06,9.79,22.41,1.08,2.68,1.88,4.77,2.42,6.19l.6,1.62c.14.37.19.56.19.56s-.09-.18-.24-.54-.38-.91-.66-1.6L294.82,130c-2.23-5.33-5.49-13-9.95-22.32-1.13-2.31-2.28-4.78-3.63-7.22a6.44,6.44,0,0,0-2.9-2.87,2.86,2.86,0,0,0-3.27,4.67,7,7,0,0,0,4.14,1.83,14,14,0,0,0,9.39-1.94,13.67,13.67,0,0,0,5.93-8.09,13.26,13.26,0,0,0,.35-5.25,5.19,5.19,0,0,0-2.72-4.21,3,3,0,0,0-2.48-.07,3,3,0,0,0-1.63,1.89,6.61,6.61,0,0,0,.66,5.28,11.82,11.82,0,0,0,9.18,6,13.65,13.65,0,0,0,10.41-3.77,8.8,8.8,0,0,0,2.87-4.61,3.78,3.78,0,0,0-.49-2.51,2.48,2.48,0,0,0-2.06-1.25,3.34,3.34,0,0,0-2.31.91,4.08,4.08,0,0,0-1.22,2.22,9.44,9.44,0,0,0,.6,5.14,12.65,12.65,0,0,0,6.91,7.2,12.51,12.51,0,0,0,9.5.09A6.23,6.23,0,0,0,325.32,98,2.81,2.81,0,0,0,324,94.36a4.43,4.43,0,0,0-4.07.13,8.34,8.34,0,0,0-2.91,3,44.29,44.29,0,0,0-3.44,7.27A71.05,71.05,0,0,0,310,118.13c-.67,4-1,7.55-1.31,10.42s-.43,5.09-.56,6.63c-.06.74-.11,1.31-.14,1.72S308,137.49,308,137.49Z" transform="translate(0 8.82)"/><path class="cls-5" d="M320.32,144.63l-35.77,2.31a2.69,2.69,0,0,1-2.86-2.51h0a2.69,2.69,0,0,1,2.51-2.86L320,139.26a2.69,2.69,0,0,1,2.86,2.51h0A2.68,2.68,0,0,1,320.32,144.63Z" transform="translate(0 8.82)"/><path class="cls-5" d="M320.47,147l-35.77,2.31a2.69,2.69,0,0,0,.35,5.37l3.92-.26,5.85,9.58a3.46,3.46,0,0,0,3.18,1.65l12.78-.83a3.46,3.46,0,0,0,3-2.07l4.42-10.21,2.67-.18a2.69,2.69,0,1,0-.35-5.36Z" transform="translate(0 8.82)"/><g class="cls-20"><path class="cls-15" d="M265.57,54.78a35.15,35.15,0,0,1,9.11-7,25.46,25.46,0,0,1,7.19-2.6c1.79-.3,2.82-.19,2.93.18.26.85-3.26,2.36-7.9,5.92a41.24,41.24,0,0,0-13.48,17.51,41.3,41.3,0,0,0-1.86,22c1,5.76,2.61,9.25,1.84,9.7-.33.2-1.17-.42-2.28-1.85A24.92,24.92,0,0,1,257.57,92a34.83,34.83,0,0,1-2-11.27,37.06,37.06,0,0,1,2.44-14" transform="translate(0 8.82)"/></g><g class="cls-20"><path class="cls-15" d="M296.37,46.72c-3,.17-5.73-.48-6.14-2.06-.19-.78.32-1.66,1.36-2.39a9.56,9.56,0,0,1,9-.53c1.12.59,1.73,1.41,1.64,2.21" transform="translate(0 8.82)"/></g><path class="cls-11" d="M313.11,163.62c0,.09-1-.26-2.5-.6a20,20,0,0,0-12.06,1.13,23.87,23.87,0,0,1-2.35,1,7.47,7.47,0,0,1,2.17-1.43,17.56,17.56,0,0,1,12.34-1.15A7.21,7.21,0,0,1,313.11,163.62Z" transform="translate(0 8.82)"/><path class="cls-11" d="M318.23,152.63c0,.17-6.44.71-14.42,1.23s-14.45.8-14.46.64,6.44-.71,14.42-1.22S318.22,152.47,318.23,152.63Z" transform="translate(0 8.82)"/><path class="cls-11" d="M316.27,157a20.06,20.06,0,0,1-3.5.59c-2.17.28-5.18.6-8.51.86s-6.35.42-8.54.48a19.65,19.65,0,0,1-3.55,0,22.81,22.81,0,0,1,3.52-.38l8.52-.66,8.52-.68A22.1,22.1,0,0,1,316.27,157Z" transform="translate(0 8.82)"/></g><g id="float-obj-book"><g class="cls-21"><use transform="matrix(0, -0.04, 0.07, 0, 49.62, 447)" xlink:href="#image"/></g><g class="cls-22"><use transform="matrix(0, -0.05, 0.08, 0, 118.92, 426.5)" xlink:href="#image"/></g><path class="cls-23" d="M81.09,297.82S32.36,289.44.4,306.73l50.75,95.55s41.54-40,81.29-15.38Z" transform="translate(0 8.82)"/><path class="cls-5" d="M81.09,297.82a2.23,2.23,0,0,1,.26.39l.73,1.21,2.81,4.74,10.56,18.09,37.36,64.43a.43.43,0,0,1-.15.59.45.45,0,0,1-.45,0,54,54,0,0,0-18.68-7.17,58.18,58.18,0,0,0-10.53-.73,65.52,65.52,0,0,0-10.79,1.36c-14.39,3.19-28.37,11-40.31,21.52l-.41.39a.49.49,0,0,1-.69,0,.76.76,0,0,1-.08-.11C31.87,367,14.4,334,.05,306.92a.38.38,0,0,1,.15-.53h0c11.18-5.78,22.52-8.28,32.48-9.61a162,162,0,0,1,26-1.13c7.2.24,12.81.81,16.61,1.28,1.91.23,3.36.46,4.33.62l1.11.19.36.09a1.79,1.79,0,0,1-.38,0l-1.11-.13c-1-.12-2.43-.31-4.34-.5-3.8-.39-9.41-.9-16.59-1.07a166.72,166.72,0,0,0-25.89,1.32c-9.91,1.38-21.17,3.92-32.19,9.67l.16-.54c14.39,27,31.92,60,50.83,95.51l-.77-.12.44-.4A102.17,102.17,0,0,1,70.68,387.9,81.07,81.07,0,0,1,92,379.8a65.53,65.53,0,0,1,11-1.36,58.54,58.54,0,0,1,10.72.76,54.74,54.74,0,0,1,19,7.33l-.6.58c-15.22-26.54-28-48.81-37-64.48L84.73,304.38,82,299.53l-.69-1.26C81.16,298,81.09,297.83,81.09,297.82Z" transform="translate(0 8.82)"/><path class="cls-23" d="M157.69,278.22s-36.86-23.5-76,19.6l51.35,89.08s10.48-36.16,71.78-23.58Z" transform="translate(0 8.82)"/><path class="cls-5" d="M157.69,278.22a2,2,0,0,1,.24.37c.17.29.39.67.68,1.15.6,1.07,1.47,2.58,2.58,4.54l9.71,17.27,34.32,61.56a.42.42,0,0,1-.16.58.4.4,0,0,1-.28.05h0l-9.12-1.5a41,41,0,0,0-4.72-.53l-4.81-.38a36.33,36.33,0,0,0-4.9-.12l-5,.07c-1.67,0-3.33.34-5,.49a37.39,37.39,0,0,0-5,.76l-5,1.14-4.92,1.73c-1.66.57-3.18,1.48-4.78,2.21a14.66,14.66,0,0,0-2.31,1.32l-2.24,1.44c-1.48,1-2.81,2.2-4.21,3.33a44.45,44.45,0,0,0-3.69,3.95,31.16,31.16,0,0,0-5.47,9.38v0a.48.48,0,0,1-.61.29.4.4,0,0,1-.26-.21c-.66-1.13-1.37-2.36-2.07-3.59L81.36,298a.41.41,0,0,1,.06-.48c8.68-9.47,18.26-16.7,27.81-20.91a55.24,55.24,0,0,1,26.24-4.93,53.3,53.3,0,0,1,16.79,3.76,42.77,42.77,0,0,1,4.1,1.93l1,.59a1.87,1.87,0,0,1,.32.23,1.55,1.55,0,0,1-.36-.18l-1-.52c-.91-.45-2.28-1.11-4.13-1.82a54.69,54.69,0,0,0-16.72-3.52,55.25,55.25,0,0,0-25.95,5.06c-9.42,4.23-18.89,11.43-27.48,20.86l0-.48,49.35,85.44,2.07,3.6-.89.1a31.94,31.94,0,0,1,5.65-9.72A45.39,45.39,0,0,1,142,373c1.43-1.15,2.79-2.4,4.31-3.41l2.3-1.47a14.39,14.39,0,0,1,2.35-1.34c1.64-.75,3.19-1.67,4.88-2.26l5-1.74,5.12-1.16a35.6,35.6,0,0,1,5.11-.76c1.7-.16,3.39-.46,5.07-.49l5-.06a36.92,36.92,0,0,1,4.94.13l4.85.4a39.05,39.05,0,0,1,4.74.54l9.18,1.53-.45.63-34-61.66L161,284.46l-2.49-4.62-.63-1.2A1.84,1.84,0,0,1,157.69,278.22Z" transform="translate(0 8.82)"/><path class="cls-23" d="M14.13,260.8l55,105.81s44.66-1.95,63.57,19.82L81.72,297.82S51.85,260.8,14.13,260.8Z" transform="translate(0 8.82)"/><path class="cls-5" d="M14.13,260.8l1.39.05,4.24.17c.46,0,1,0,1.48.09l1.61.26,3.67.61a31.49,31.49,0,0,1,4.21,1c1.48.45,3.1.75,4.71,1.39,13.14,4.37,30.75,15,46.59,33.19l0,0v0l51,88.55a.49.49,0,0,1-.18.66.47.47,0,0,1-.58-.07l0,0-2.15-2.14a46.89,46.89,0,0,0-14.07-9.3,81.86,81.86,0,0,0-15.72-5.15,131.35,131.35,0,0,0-31.24-3.08h0a.46.46,0,0,1-.41-.25c-16-31.06-29.71-57.6-39.41-76.42L18.06,268.56l-3-5.79-.74-1.48a3.14,3.14,0,0,1-.23-.49s.11.19.29.53.47.87.81,1.52c.73,1.36,1.76,3.32,3.09,5.84l11.49,21.86L69.48,366.4l-.42-.24a131.8,131.8,0,0,1,31.49,3.06,82.16,82.16,0,0,1,15.91,5.2,47.57,47.57,0,0,1,14.34,9.49c.76.75,1.52,1.5,2.21,2.2l-.78.56L81.37,298l0,.05a128.84,128.84,0,0,0-24.06-21.76,92.29,92.29,0,0,0-22.06-11.5c-1.59-.65-3.2-1-4.67-1.43a31,31,0,0,0-4.17-1.05l-3.64-.67-1.6-.29c-.5-.06-1-.07-1.43-.11Z" transform="translate(0 8.82)"/></g><path class="cls-6" d="M185.66,560.9l1.18,2a13.44,13.44,0,0,0,5.55,5.12l2.06,1-2,1.18a13.41,13.41,0,0,0-5.11,5.55l-1,2.06-1.18-2a13.5,13.5,0,0,0-5.56-5.11l-2.05-1,2-1.18a13.52,13.52,0,0,0,5.12-5.56Z" transform="translate(0 8.82)"/><path class="cls-6" d="M77.32,157.86l1.18,2a13.43,13.43,0,0,0,5.56,5.11l2,1-2,1.18A13.44,13.44,0,0,0,79,172.68l-1,2-1.18-2a13.41,13.41,0,0,0-5.55-5.11l-2.05-1,2-1.18a13.41,13.41,0,0,0,5.11-5.55Z" transform="translate(0 8.82)"/><path class="cls-6" d="M519.48,586.21l1.18,2a13.46,13.46,0,0,0,5.56,5.12l2,1-2,1.18a13.46,13.46,0,0,0-5.12,5.56l-1,2.05-1.18-2a13.44,13.44,0,0,0-5.55-5.12l-2.06-1,2-1.18a13.44,13.44,0,0,0,5.11-5.56Z" transform="translate(0 8.82)"/><path class="cls-6" d="M530.76,661.62l.56.22a3.51,3.51,0,0,0,2,.2l.6-.11-.23.56a3.6,3.6,0,0,0-.19,2l.11.6-.57-.23a3.56,3.56,0,0,0-2-.19l-.6.11.22-.57a3.47,3.47,0,0,0,.2-2Z" transform="translate(0 8.82)"/><path class="cls-6" d="M99.36,105.21l.56.22a3.51,3.51,0,0,0,2,.2l.6-.12-.23.57a3.59,3.59,0,0,0-.19,2l.11.6-.57-.23a3.59,3.59,0,0,0-2-.2l-.59.12.22-.57a3.51,3.51,0,0,0,.2-2Z" transform="translate(0 8.82)"/><path class="cls-6" d="M156.81,502.2l.56.23a3.6,3.6,0,0,0,2,.19l.6-.11-.23.57a3.56,3.56,0,0,0-.19,2l.11.6-.57-.22a3.47,3.47,0,0,0-2-.2l-.6.11.22-.56a3.52,3.52,0,0,0,.2-2Z" transform="translate(0 8.82)"/><path class="cls-6" d="M219.09,655.65s-.17.21-.53.57-.93.93-1.63,1.61L210.62,664l-23.42,22.6.09-.24c1.11,24.52,2.63,57.85,4.31,94.91l0,.83-.7-.46L182.48,776l-53.63-35.9-.11-.07,0-.13-19.51-58.27-5.47-16.54c-.61-1.89-1.09-3.35-1.42-4.39-.15-.47-.26-.84-.35-1.13a1.64,1.64,0,0,1-.1-.39,2.47,2.47,0,0,1,.16.37l.41,1.11L104,665c1.33,3.86,3.25,9.43,5.67,16.47,4.84,14.2,11.69,34.33,19.81,58.18l-.15-.2L183,775.26l8.45,5.65-.66.37c-1.59-37.06-3-70.39-4.06-94.91v-.14l.1-.09,23.61-22.4,6.42-6,1.69-1.55C218.88,655.81,219.09,655.65,219.09,655.65Z" transform="translate(0 8.82)"/><polygon class="cls-6" points="194.13 778.91 193.96 784.44 198.41 787.72 193.1 789.26 191.36 794.52 188.25 789.94 182.71 789.91 186.1 785.54 184.42 780.26 189.63 782.14 194.13 778.91"/><polygon class="cls-6" points="129.53 741.36 129.63 744.94 132.65 746.88 129.27 748.09 128.36 751.56 126.17 748.72 122.59 748.92 124.61 745.96 123.31 742.62 126.75 743.63 129.53 741.36"/><polygon class="cls-6" points="101.7 661.39 104.4 664.86 108.79 664.6 106.33 668.24 107.93 672.34 103.71 671.12 100.31 673.91 100.16 669.51 96.46 667.14 100.59 665.64 101.7 661.39"/><polygon class="cls-6" points="216.39 657.92 219.09 661.39 223.48 661.13 221.01 664.77 222.62 668.87 218.39 667.65 214.99 670.44 214.85 666.04 211.14 663.67 215.28 662.18 216.39 657.92"/><polygon class="cls-6" points="186.28 691.43 188 693.64 190.81 693.47 189.23 695.8 190.26 698.41 187.56 697.63 185.39 699.41 185.3 696.61 182.93 695.1 185.57 694.14 186.28 691.43"/><g id="float-obj-saturn"><g class="cls-24"><use transform="matrix(0, -0.06, 0.1, 0, 23.03, 564.41)" xlink:href="#image"/></g><g class="cls-25"><path class="cls-15" d="M77.8,508a6.36,6.36,0,1,1-6.35-6.36A6.35,6.35,0,0,1,77.8,508Z" transform="translate(0 8.82)"/></g><g class="cls-25"><path class="cls-15" d="M68.79,489.68a3.7,3.7,0,1,1-3.7-3.7A3.7,3.7,0,0,1,68.79,489.68Z" transform="translate(0 8.82)"/></g><path class="cls-6" d="M45.06,505.33c.18.68-33.35,32.85-24.71,39.7s45-10.73,76-35.76,59.31-55.43,51.56-63.48-46.48,15.78-46.48,15.78l4.63,2.95s23.41-15,30.82-9.19-13.71,28.61-43.51,50.36-58.59,37-63.06,31.07,16.62-25.84,16.62-25.84Z" transform="translate(0 8.82)"/><g class="cls-25"><path d="M45.06,505.33c.18.68-33.35,32.85-24.71,39.7s45-10.73,76-35.76,59.31-55.43,51.56-63.48-46.48,15.78-46.48,15.78l4.63,2.95s23.41-15,30.82-9.19-13.71,28.61-43.51,50.36-58.59,37-63.06,31.07,16.62-25.84,16.62-25.84Z" transform="translate(0 8.82)"/></g><g class="cls-25"><path class="cls-15" d="M61.39,468.4c.32.38-2.32,2.62-5.31,7.12a35.84,35.84,0,0,0-.79,39.41c2.81,4.62,5.36,7,5,7.33s-3.33-1.54-6.8-6.13a34,34,0,0,1-4.73-8.87,33.81,33.81,0,0,1,.49-24.33,33.39,33.39,0,0,1,5.08-8.67C58,469.8,61.21,468.12,61.39,468.4Z" transform="translate(0 8.82)"/></g></g><g id="float-obj-ball"><g class="cls-26"><use transform="matrix(0, -0.04, 0.06, 0, 475.67, 171.29)" xlink:href="#image"/></g><g class="cls-12"><path d="M522.78,118.51a5.25,5.25,0,1,1,5.12,5.37A5.24,5.24,0,0,1,522.78,118.51Z" transform="translate(0 8.82)"/></g><g class="cls-12"><path d="M533.27,130.75a3.05,3.05,0,1,1,3,3.13A3,3,0,0,1,533.27,130.75Z" transform="translate(0 8.82)"/></g><g class="cls-12"><path d="M529.18,140.12a1.11,1.11,0,0,1,1.09,1.15,1.12,1.12,0,1,1-1.09-1.15Z" transform="translate(0 8.82)"/></g></g></g></g></g></svg>